<mxfile host="Electron" agent="Mozilla/5.0 (Windows NT 10.0; Win64; x64) AppleWebKit/537.36 (KHTML, like Gecko) draw.io/27.0.2 Chrome/134.0.6998.205 Electron/35.3.0 Safari/537.36" version="27.0.2">
  <diagram name="Seite-1" id="BNMo6Y46Mu1LBe3jMS4O">
    <mxGraphModel dx="882" dy="726" grid="1" gridSize="10" guides="1" tooltips="1" connect="1" arrows="1" fold="1" page="1" pageScale="1" pageWidth="827" pageHeight="1169" background="none" math="0" shadow="1">
      <root>
        <mxCell id="0" />
        <mxCell id="1" parent="0" />
        <mxCell id="q1N-MdoAuxAc4vqxhMuS-2" value="Components" style="swimlane;whiteSpace=wrap;html=1;" vertex="1" parent="1">
          <mxGeometry x="610" y="80" width="200" height="270" as="geometry" />
        </mxCell>
        <mxCell id="q1N-MdoAuxAc4vqxhMuS-5" value="MessageLog" style="whiteSpace=wrap;html=1;" vertex="1" parent="q1N-MdoAuxAc4vqxhMuS-2">
          <mxGeometry x="30" y="40" width="140" height="30" as="geometry" />
        </mxCell>
        <mxCell id="q1N-MdoAuxAc4vqxhMuS-6" value="ContextBar" style="whiteSpace=wrap;html=1;" vertex="1" parent="q1N-MdoAuxAc4vqxhMuS-2">
          <mxGeometry x="30" y="100" width="140" height="30" as="geometry" />
        </mxCell>
        <mxCell id="q1N-MdoAuxAc4vqxhMuS-7" value="SidePopup" style="whiteSpace=wrap;html=1;" vertex="1" parent="q1N-MdoAuxAc4vqxhMuS-2">
          <mxGeometry x="30" y="160" width="140" height="30" as="geometry" />
        </mxCell>
        <mxCell id="q1N-MdoAuxAc4vqxhMuS-8" value="TextI&lt;span style=&quot;background-color: transparent; color: light-dark(rgb(0, 0, 0), rgb(255, 255, 255));&quot;&gt;nput&lt;/span&gt;" style="whiteSpace=wrap;html=1;" vertex="1" parent="q1N-MdoAuxAc4vqxhMuS-2">
          <mxGeometry x="30" y="220" width="140" height="30" as="geometry" />
        </mxCell>
        <mxCell id="q1N-MdoAuxAc4vqxhMuS-3" value="Functions" style="swimlane;whiteSpace=wrap;html=1;" vertex="1" parent="1">
          <mxGeometry x="370" y="20" width="200" height="500" as="geometry" />
        </mxCell>
        <mxCell id="q1N-MdoAuxAc4vqxhMuS-9" value="DrawScreen" style="whiteSpace=wrap;html=1;" vertex="1" parent="q1N-MdoAuxAc4vqxhMuS-3">
          <mxGeometry x="30" y="40" width="140" height="30" as="geometry" />
        </mxCell>
        <mxCell id="q1N-MdoAuxAc4vqxhMuS-10" value="UpdateMessageLog" style="whiteSpace=wrap;html=1;" vertex="1" parent="q1N-MdoAuxAc4vqxhMuS-3">
          <mxGeometry x="30" y="100" width="140" height="30" as="geometry" />
        </mxCell>
        <mxCell id="q1N-MdoAuxAc4vqxhMuS-11" value="UpdateSidePopup" style="whiteSpace=wrap;html=1;" vertex="1" parent="q1N-MdoAuxAc4vqxhMuS-3">
          <mxGeometry x="30" y="160" width="140" height="30" as="geometry" />
        </mxCell>
        <mxCell id="q1N-MdoAuxAc4vqxhMuS-12" value="UpdateTextInput" style="whiteSpace=wrap;html=1;" vertex="1" parent="q1N-MdoAuxAc4vqxhMuS-3">
          <mxGeometry x="30" y="220" width="140" height="30" as="geometry" />
        </mxCell>
        <mxCell id="q1N-MdoAuxAc4vqxhMuS-13" value="UpdateContextBar" style="whiteSpace=wrap;html=1;" vertex="1" parent="q1N-MdoAuxAc4vqxhMuS-3">
          <mxGeometry x="30" y="280" width="140" height="30" as="geometry" />
        </mxCell>
        <mxCell id="q1N-MdoAuxAc4vqxhMuS-50" value="SendMessage" style="whiteSpace=wrap;html=1;" vertex="1" parent="q1N-MdoAuxAc4vqxhMuS-3">
          <mxGeometry x="30" y="340" width="140" height="30" as="geometry" />
        </mxCell>
        <mxCell id="q1N-MdoAuxAc4vqxhMuS-4" value="event" style="swimlane;whiteSpace=wrap;html=1;" vertex="1" parent="1">
          <mxGeometry x="90" y="20" width="200" height="430" as="geometry" />
        </mxCell>
        <mxCell id="q1N-MdoAuxAc4vqxhMuS-33" value="Start application" style="rounded=0;whiteSpace=wrap;html=1;" vertex="1" parent="q1N-MdoAuxAc4vqxhMuS-4">
          <mxGeometry x="10" y="30" width="180" height="30" as="geometry" />
        </mxCell>
        <mxCell id="q1N-MdoAuxAc4vqxhMuS-34" value="Send a text from the Textinput" style="rounded=0;whiteSpace=wrap;html=1;" vertex="1" parent="q1N-MdoAuxAc4vqxhMuS-4">
          <mxGeometry x="10" y="70" width="180" height="30" as="geometry" />
        </mxCell>
        <mxCell id="q1N-MdoAuxAc4vqxhMuS-35" value="&lt;span style=&quot;color: rgb(255, 255, 255); font-family: Helvetica; font-size: 12px; font-style: normal; font-variant-ligatures: normal; font-variant-caps: normal; font-weight: 400; letter-spacing: normal; orphans: 2; text-align: center; text-indent: 0px; text-transform: none; widows: 2; word-spacing: 0px; -webkit-text-stroke-width: 0px; white-space: normal; background-color: rgb(27, 29, 30); text-decoration-thickness: initial; text-decoration-style: initial; text-decoration-color: initial; display: inline !important; float: none;&quot;&gt;Write a text in the TextI&lt;/span&gt;&lt;span style=&quot;forced-color-adjust: none; box-shadow: none !important; color: light-dark(rgb(0, 0, 0), rgb(255, 255, 255)); font-family: Helvetica; font-size: 12px; font-style: normal; font-variant-ligatures: normal; font-variant-caps: normal; font-weight: 400; letter-spacing: normal; orphans: 2; text-align: center; text-indent: 0px; text-transform: none; widows: 2; word-spacing: 0px; -webkit-text-stroke-width: 0px; white-space: normal; background-color: transparent; text-decoration-thickness: initial; text-decoration-style: initial; text-decoration-color: initial;&quot;&gt;nput&lt;/span&gt;" style="rounded=0;whiteSpace=wrap;html=1;" vertex="1" parent="q1N-MdoAuxAc4vqxhMuS-4">
          <mxGeometry x="10" y="110" width="180" height="30" as="geometry" />
        </mxCell>
        <mxCell id="q1N-MdoAuxAc4vqxhMuS-36" value="Select a Tab in the ContextBar" style="rounded=0;whiteSpace=wrap;html=1;" vertex="1" parent="q1N-MdoAuxAc4vqxhMuS-4">
          <mxGeometry x="10" y="150" width="180" height="30" as="geometry" />
        </mxCell>
        <mxCell id="q1N-MdoAuxAc4vqxhMuS-37" value="Switch Tabs in the ContextBar" style="rounded=0;whiteSpace=wrap;html=1;" vertex="1" parent="q1N-MdoAuxAc4vqxhMuS-4">
          <mxGeometry x="10" y="190" width="180" height="30" as="geometry" />
        </mxCell>
        <mxCell id="q1N-MdoAuxAc4vqxhMuS-38" value="Recive a message from the server" style="rounded=0;whiteSpace=wrap;html=1;" vertex="1" parent="q1N-MdoAuxAc4vqxhMuS-4">
          <mxGeometry x="10" y="230" width="180" height="31" as="geometry" />
        </mxCell>
        <mxCell id="q1N-MdoAuxAc4vqxhMuS-39" value="" style="rounded=0;whiteSpace=wrap;html=1;" vertex="1" parent="q1N-MdoAuxAc4vqxhMuS-4">
          <mxGeometry x="10" y="270" width="180" height="30" as="geometry" />
        </mxCell>
        <mxCell id="q1N-MdoAuxAc4vqxhMuS-40" value="" style="rounded=0;whiteSpace=wrap;html=1;" vertex="1" parent="q1N-MdoAuxAc4vqxhMuS-4">
          <mxGeometry x="10" y="310" width="180" height="30" as="geometry" />
        </mxCell>
        <mxCell id="q1N-MdoAuxAc4vqxhMuS-41" value="" style="rounded=0;whiteSpace=wrap;html=1;" vertex="1" parent="q1N-MdoAuxAc4vqxhMuS-4">
          <mxGeometry x="10" y="350" width="180" height="30" as="geometry" />
        </mxCell>
        <mxCell id="q1N-MdoAuxAc4vqxhMuS-42" value="" style="rounded=0;whiteSpace=wrap;html=1;" vertex="1" parent="q1N-MdoAuxAc4vqxhMuS-4">
          <mxGeometry x="10" y="390" width="180" height="30" as="geometry" />
        </mxCell>
        <mxCell id="q1N-MdoAuxAc4vqxhMuS-24" style="edgeStyle=orthogonalEdgeStyle;rounded=0;orthogonalLoop=1;jettySize=auto;html=1;entryX=0.5;entryY=0;entryDx=0;entryDy=0;" edge="1" parent="1" source="q1N-MdoAuxAc4vqxhMuS-9" target="q1N-MdoAuxAc4vqxhMuS-2">
          <mxGeometry relative="1" as="geometry">
            <Array as="points">
              <mxPoint x="590" y="75" />
              <mxPoint x="590" y="60" />
              <mxPoint x="710" y="60" />
            </Array>
          </mxGeometry>
        </mxCell>
        <mxCell id="q1N-MdoAuxAc4vqxhMuS-29" style="edgeStyle=orthogonalEdgeStyle;rounded=0;orthogonalLoop=1;jettySize=auto;html=1;entryX=0;entryY=0.5;entryDx=0;entryDy=0;" edge="1" parent="1" source="q1N-MdoAuxAc4vqxhMuS-10" target="q1N-MdoAuxAc4vqxhMuS-5">
          <mxGeometry relative="1" as="geometry" />
        </mxCell>
        <mxCell id="q1N-MdoAuxAc4vqxhMuS-30" style="edgeStyle=orthogonalEdgeStyle;rounded=0;orthogonalLoop=1;jettySize=auto;html=1;entryX=0;entryY=0.5;entryDx=0;entryDy=0;" edge="1" parent="1" source="q1N-MdoAuxAc4vqxhMuS-11" target="q1N-MdoAuxAc4vqxhMuS-6">
          <mxGeometry relative="1" as="geometry" />
        </mxCell>
        <mxCell id="q1N-MdoAuxAc4vqxhMuS-31" style="edgeStyle=orthogonalEdgeStyle;rounded=0;orthogonalLoop=1;jettySize=auto;html=1;entryX=0;entryY=0.5;entryDx=0;entryDy=0;" edge="1" parent="1" source="q1N-MdoAuxAc4vqxhMuS-12" target="q1N-MdoAuxAc4vqxhMuS-7">
          <mxGeometry relative="1" as="geometry" />
        </mxCell>
        <mxCell id="q1N-MdoAuxAc4vqxhMuS-32" style="edgeStyle=orthogonalEdgeStyle;rounded=0;orthogonalLoop=1;jettySize=auto;html=1;entryX=0;entryY=0.5;entryDx=0;entryDy=0;" edge="1" parent="1" source="q1N-MdoAuxAc4vqxhMuS-13" target="q1N-MdoAuxAc4vqxhMuS-8">
          <mxGeometry relative="1" as="geometry" />
        </mxCell>
        <mxCell id="q1N-MdoAuxAc4vqxhMuS-43" style="edgeStyle=orthogonalEdgeStyle;rounded=0;orthogonalLoop=1;jettySize=auto;html=1;entryX=0;entryY=0.5;entryDx=0;entryDy=0;" edge="1" parent="1" source="q1N-MdoAuxAc4vqxhMuS-33" target="q1N-MdoAuxAc4vqxhMuS-9">
          <mxGeometry relative="1" as="geometry" />
        </mxCell>
        <mxCell id="q1N-MdoAuxAc4vqxhMuS-44" style="edgeStyle=orthogonalEdgeStyle;rounded=0;orthogonalLoop=1;jettySize=auto;html=1;entryX=0;entryY=0.5;entryDx=0;entryDy=0;" edge="1" parent="1" source="q1N-MdoAuxAc4vqxhMuS-34" target="q1N-MdoAuxAc4vqxhMuS-12">
          <mxGeometry relative="1" as="geometry" />
        </mxCell>
        <mxCell id="q1N-MdoAuxAc4vqxhMuS-45" style="edgeStyle=orthogonalEdgeStyle;rounded=0;orthogonalLoop=1;jettySize=auto;html=1;entryX=0;entryY=0.5;entryDx=0;entryDy=0;" edge="1" parent="1" source="q1N-MdoAuxAc4vqxhMuS-35" target="q1N-MdoAuxAc4vqxhMuS-12">
          <mxGeometry relative="1" as="geometry" />
        </mxCell>
        <mxCell id="q1N-MdoAuxAc4vqxhMuS-46" style="edgeStyle=orthogonalEdgeStyle;rounded=0;orthogonalLoop=1;jettySize=auto;html=1;entryX=0;entryY=0.5;entryDx=0;entryDy=0;" edge="1" parent="1" source="q1N-MdoAuxAc4vqxhMuS-36" target="q1N-MdoAuxAc4vqxhMuS-11">
          <mxGeometry relative="1" as="geometry">
            <Array as="points">
              <mxPoint x="350" y="185" />
              <mxPoint x="350" y="195" />
            </Array>
          </mxGeometry>
        </mxCell>
        <mxCell id="q1N-MdoAuxAc4vqxhMuS-47" style="edgeStyle=orthogonalEdgeStyle;rounded=0;orthogonalLoop=1;jettySize=auto;html=1;entryX=0;entryY=0.5;entryDx=0;entryDy=0;" edge="1" parent="1" source="q1N-MdoAuxAc4vqxhMuS-36" target="q1N-MdoAuxAc4vqxhMuS-13">
          <mxGeometry relative="1" as="geometry">
            <Array as="points">
              <mxPoint x="330" y="185" />
              <mxPoint x="330" y="315" />
            </Array>
          </mxGeometry>
        </mxCell>
        <mxCell id="q1N-MdoAuxAc4vqxhMuS-48" style="edgeStyle=orthogonalEdgeStyle;rounded=0;orthogonalLoop=1;jettySize=auto;html=1;entryX=0;entryY=0.5;entryDx=0;entryDy=0;" edge="1" parent="1" source="q1N-MdoAuxAc4vqxhMuS-37" target="q1N-MdoAuxAc4vqxhMuS-13">
          <mxGeometry relative="1" as="geometry">
            <Array as="points">
              <mxPoint x="330" y="225" />
              <mxPoint x="330" y="315" />
            </Array>
          </mxGeometry>
        </mxCell>
        <mxCell id="q1N-MdoAuxAc4vqxhMuS-49" style="edgeStyle=orthogonalEdgeStyle;rounded=0;orthogonalLoop=1;jettySize=auto;html=1;entryX=0;entryY=0.5;entryDx=0;entryDy=0;" edge="1" parent="1" source="q1N-MdoAuxAc4vqxhMuS-38" target="q1N-MdoAuxAc4vqxhMuS-10">
          <mxGeometry relative="1" as="geometry">
            <Array as="points">
              <mxPoint x="320" y="266" />
              <mxPoint x="320" y="135" />
            </Array>
          </mxGeometry>
        </mxCell>
        <mxCell id="q1N-MdoAuxAc4vqxhMuS-51" style="edgeStyle=orthogonalEdgeStyle;rounded=0;orthogonalLoop=1;jettySize=auto;html=1;entryX=0;entryY=0.5;entryDx=0;entryDy=0;flowAnimation=0;" edge="1" parent="1" source="q1N-MdoAuxAc4vqxhMuS-34" target="q1N-MdoAuxAc4vqxhMuS-50">
          <mxGeometry relative="1" as="geometry">
            <Array as="points">
              <mxPoint x="360" y="105" />
              <mxPoint x="360" y="375" />
            </Array>
          </mxGeometry>
        </mxCell>
      </root>
    </mxGraphModel>
  </diagram>
</mxfile>
